<svg viewBox="0 0 168 182" xmlns="http://www.w3.org/2000/svg">
	
	<g transform="translate(816.831,226.036) scale(0.256192,0.26903)" stroke="#191919" fill="none" stroke-linejoin="round" stroke-linecap="round" stroke-width="11.38">
		<defs>
			<path id="wing" d="M-939,-486C-939,-486 -902.097,-659.906 -796,-597C-689.903,-534.094 -926.088,-466.789 -929,-468"/>
			<path id="leg" d="M-1603,-204.571C-1578.58,-204.281 -1568.64,-189.502 -1565.93,-167.502"/>
			<circle id="eye" cx="-1669.5" cy="-74.5" r="17.5" fill="#191919" transform="scale(1.30031,1.2824)"/>
			<path id="mouth" d="M-1225,-120C-1224.92,-118.887 -1210.99,-105.523 -1194,-120C-1193.47,-120.136 -1179.53,-106.241 -1163.14,-119.14" stroke-width="17.38" transform="scale(0.847203,0.835533) matrix(1,0.072741,-0.072741,1,0,0)"/>
			<path id="body" stroke="none" fill="#83254F" d="M0.525,0.011C0.453,0.011 0.388,0.001 0.329,-0.018C0.271,-0.038 0.224,-0.067 0.19,-0.106C0.155,-0.144 0.138,-0.193 0.138,-0.251C0.138,-0.31 0.155,-0.358 0.19,-0.397C0.224,-0.435 0.271,-0.464 0.329,-0.483C0.388,-0.502 0.453,-0.512 0.525,-0.512C0.597,-0.512 0.662,-0.502 0.72,-0.483C0.778,-0.464 0.825,-0.435 0.86,-0.396C0.894,-0.358 0.912,-0.309 0.912,-0.251C0.912,-0.193 0.894,-0.144 0.86,-0.106C0.825,-0.067 0.778,-0.038 0.72,-0.018C0.662,0.001 0.597,0.011 0.525,0.011Z" transform="scale(1.30031,1.2824) scale(655.491) rotate(-16.639)"/>
			<!--matrix(816.653,-240.699,244.061,805.403,0,0)-->
		</defs>
		<use href="#wing" transform="translate(-4615.99,-815.89) matrix(-1.2973,-0.953582,-0.966902,1.27943,0,0)" stroke-width="9.3"/>
		<use href="#leg" transform="translate(-5204.42,-15.1179) scale(1.30031,1.2824) scale(-1,1)"/>
		<use href="#body" transform="translate(-3226.92,-110.694)"/>
		<use href="#eye" x="-932.381" y="-308.02"/>
		<use href="#eye" x="-801.05" y="-285.578"/>
		<use href="#mouth" transform="translate(-2048.07,-171.385)"/>
		<use href="#wing" transform="translate(-1316.63,223.263) scale(1.61799,1.5957)" stroke-width="9.15"/>
		<use href="#leg" transform="translate(-775.629,34.1386) scale(1.30031,1.2824)"/>
		<use href="#leg" transform="translate(-661.888,-13.3998) scale(1.30031,1.2824)"/>
		<use href="#leg" transform="translate(-577.602,-579.56) scale(1.30031,1.2824) rotate(-14.708)" stroke-width="11.48"/>
		
		<g stroke-width="3">
			<rect x="-600" y="-200" width="100" height="100" fill="red" transform="translate(-2500,-400) matrix(1,-0.298855,0.298855,1,0,0)"/>
			<rect x="-600" y="-200" width="100" height="100" fill="red" transform="translate(-2500,-400) rotate(-16.7) scale(1.0429489127458018)" stroke="green"/>
		</g>
matrix(1.2577,-0.325599,0.330147,1.24037,-577.602,-579.56)
	</g>
</svg>
