<svg viewBox="0 0 16 16" xmlns="http://www.w3.org/2000/svg">
	<!--<rect width="16" height="16" fill="gold" />-->
	<use y="-0.04" x="0" width="16" height="16.2" href="#logo" opacity="1"/>
	<symbol viewBox="0 -24.65 177.3 177.3" id="logo" preserveAspectRatio="none">
		<!--<path stroke="#FFF9F2" stroke-width="30" fill="none" fill-rule="evenodd" clip-rule="evenodd" d="M142.814 106.403C131.705 113.206 118.897 118.552 104.39 122.439C88.2779 126.756 73.0919 128.487 58.8317 127.631C44.5716 126.775 32.4222 123.055 22.3834 116.471C12.3446 109.887 5.57634 100.068 2.07868 87.0142C-1.43905 73.886 -0.492012 61.9799 4.9198 51.2958C10.3316 40.6118 19.0083 31.3714 30.95 23.5747C42.8917 15.7779 56.9185 9.72092 73.0304 5.40379C89.0677 1.1066 104.193 -0.627685 118.406 0.200922C127.955 0.757684 136.568 2.6028 144.246 5.73626C147.995 7.26657 151.521 9.10414 154.824 11.249C164.89 17.7858 171.672 27.581 175.17 40.6346C178.667 53.6882 177.697 65.5807 172.258 76.312C171.498 77.8112 170.675 79.2823 169.789 80.7261"/>		-->
		<path transform="translate(-170 0)" d="M308.663 106.615C302.797 106.615 297.48 105.82 292.713 104.232C287.947 102.643 284.158 100.273 281.347 97.1224C278.536 93.9718 277.13 90.02 277.13 85.267C277.13 80.4868 278.536 76.5282 281.347 73.3912C284.158 70.2542 287.947 67.9048 292.713 66.3431C297.48 64.7814 302.797 64.0005 308.663 64.0005C314.503 64.0005 319.799 64.7882 324.552 66.3635C329.305 67.9387 333.094 70.2949 335.918 73.4319C338.743 76.5689 340.155 80.5139 340.155 85.267C340.155 90.02 338.743 93.9718 335.918 97.1224C333.094 100.273 329.305 102.643 324.552 104.232C319.799 105.82 314.503 106.615 308.663 106.615Z" fill="#FFF9F2" stroke="#FFF9F2" stroke-width="1"/>
		
		<rect x="20" y="50" width="100" height="65" fill="#FFF9F2"/>
		
		<path fill="rgb(131, 37, 79)" fill-rule="evenodd" clip-rule="evenodd" d="M142.814 106.403C131.705 113.206 118.897 118.552 104.39 122.439C88.2779 126.756 73.0919 128.487 58.8317 127.631C44.5716 126.775 32.4222 123.055 22.3834 116.471C12.3446 109.887 5.57634 100.068 2.07868 87.0142C-1.43905 73.886 -0.492012 61.9799 4.9198 51.2958C10.3316 40.6118 19.0083 31.3714 30.95 23.5747C42.8917 15.7779 56.9185 9.72092 73.0304 5.40379C89.0677 1.1066 104.193 -0.627685 118.406 0.200922C127.955 0.757684 136.568 2.6028 144.246 5.73626C147.995 7.26657 151.521 9.10414 154.824 11.249C164.89 17.7858 171.672 27.581 175.17 40.6346C178.667 53.6882 177.697 65.5807 172.258 76.312C171.498 77.8112 170.675 79.2823 169.789 80.7261C169.163 77.9074 167.906 75.4497 166.018 73.353C165.091 72.3236 164.061 71.3784 162.926 70.5172C160.603 68.7538 157.845 67.3429 154.652 66.2845C149.898 64.7092 144.602 63.9216 138.763 63.9216C132.896 63.9216 127.58 64.7024 122.813 66.2641C118.046 67.8259 114.257 70.1752 111.446 73.3122C108.635 76.4492 107.23 80.4078 107.23 85.188C107.23 89.9411 108.635 93.8928 111.446 97.0434C114.257 100.194 118.046 102.564 122.813 104.153C127.58 105.741 132.896 106.536 138.763 106.536C140.143 106.536 141.493 106.492 142.814 106.403ZM91.9944 97.9397C90.8808 99.1348 88.9185 100.404 86.1074 101.749C83.2963 103.093 79.9081 104.227 75.9427 105.151C71.9773 106.074 67.7132 106.536 63.1502 106.536C59.1577 106.536 55.2466 106.149 51.417 105.375C47.5875 104.601 44.1245 103.372 41.0283 101.688C37.932 100.004 35.4672 97.8039 33.6339 95.0879C31.8006 92.3719 30.8839 89.0719 30.8839 85.188C30.8839 81.2498 31.8006 77.9227 33.6339 75.2066C35.4672 72.4906 37.932 70.3042 41.0283 68.6475C44.1245 66.9907 47.5875 65.7888 51.417 65.0419C55.2466 64.295 59.1577 63.9216 63.1502 63.9216C67.7403 63.9216 71.9773 64.329 75.8612 65.1438C79.7451 65.9586 83.079 67.0246 85.8629 68.3419C88.6469 69.6592 90.6635 71.0647 91.9129 72.5585L81.4834 79.4028C79.9624 77.7461 77.6538 76.4221 74.5575 75.4307C71.4613 74.4394 67.6996 73.9437 63.2725 73.9437C61.0997 73.9437 58.9065 74.1135 56.6929 74.4529C54.4793 74.7925 52.4491 75.3696 50.6022 76.1844C48.7554 76.9992 47.2683 78.1399 46.1412 79.6066C45.014 81.0732 44.4504 82.9337 44.4504 85.188C44.4504 87.4151 45.014 89.2553 46.1412 90.7083C47.2683 92.1614 48.7554 93.3157 50.6022 94.1712C52.4491 95.0268 54.4793 95.6311 56.6929 95.9842C58.9065 96.3373 61.0997 96.5138 63.2725 96.5138C67.6181 96.5138 71.3866 95.9706 74.5779 94.8842C77.7692 93.7978 80.0167 92.5484 81.3204 91.1361L91.9944 97.9397ZM138.763 96.3508C144.439 96.3508 148.839 95.3323 151.963 93.2953C155.086 91.2583 156.648 88.5559 156.648 85.188C156.648 81.7386 155.079 79.0294 151.942 77.0603C148.805 75.0912 144.412 74.1066 138.763 74.1066C133.086 74.1066 128.666 75.0912 125.502 77.0603C122.338 79.0294 120.756 81.7386 120.756 85.188C120.756 88.6102 122.338 91.3262 125.502 93.3361C128.666 95.3459 133.086 96.3508 138.763 96.3508Z"/>
	</symbol>
	
	<g opacity="1" stroke="red" stroke-width="0.05" fill="none">
		
		<path
			d="m0,16 16,0 0,-1 -16,0 0,-1 16,0 0,-1 -16,0 0,-1 16,0 0,-1 -16,0 0,-1 16,0 0,-1 -16,0 0,-1 16,0 0,-1 -16,0 0,-1 16,0 0,-1 -16,0 0,-1 16,0 0,-1 -16,0 0,-1 16,0 0,-1 -16,0 0,-1"
		/>
		<path transform="rotate(90 8 8)"
			d="m0,16 16,0 0,-1 -16,0 0,-1 16,0 0,-1 -16,0 0,-1 16,0 0,-1 -16,0 0,-1 16,0 0,-1 -16,0 0,-1 16,0 0,-1 -16,0 0,-1 16,0 0,-1 -16,0 0,-1 16,0 0,-1 -16,0 0,-1 16,0 0,-1 -16,0 0,-1"
		/>
	</g>
</svg>
