<svg xmlns="http://www.w3.org/2000/svg" width="42" height="42" xmlns:inkscape="http://www.inkscape.org/namespaces/inkscape">
	<title>https://kokoscript.com/artwork/kokoscript_kowo.svg</title>
	<use href="#kowo"/>
	<symbol id="kowo" viewBox="0,0,42,42" stroke-width="1" fill="none" stroke="none">
		<g inkscape:label="body">
			<path inkscape:label="body-tail-fill" fill="white" d="M 10,26 H 28 V 28.5 L 34.48486,31.28917 34.0874,34.0045 32.15381,35.97911 27.62902,36.1173 25,35 24,36.5 19.03076,33.50645 14,36.5 13.5,36 13.47803,30.5786 10,28.5 Z"/>
			<g inkscape:label="leg-stripes" stroke="#FF3080" stroke-linecap="square">
				<path d="M 14,32 16.5,34.5"/>
				<path d="M 24,32 21.5,34.5"/>
			</g>
			<g inkscape:label="paws" fill="#FF3080">
				<path d="M 14,36.5 16,35.5 14,33.5 Z"/>
				<path d="M 10,28.5 V 26 H 6.25 Z"/>
				<path d="M 28,28.5 V 26 h 3.75 z"/>
				<path d="M 24,36.5 22,35.5 24,33.5 Z"/>
				<path inkscape:label="tail-tip" d="M 34.5,32 C 30.91839,29.98744 28.75523,33.92488 27.00201,29.14787 L 32.5,26.5 V 28.5 L 36.5,26.5 Z"/>
			</g>
			<path inkscape:label="tail-outline" stroke="black" d="M 25,35.5 C 27,35.5 27,36.5 29.5,36.5 32.00182,36.5 34.5,34.94589 34.5,32 34.5,29.05481 36.5,26.5 36.5,26.5 S 33.98946,27.01089 32.5,28.5 V 26.50035000 S 31.22281,26.7863 30.50566,27.34208"/>
			<path inkscape:label="body-outline" stroke="black" stroke-linejoin="round" d="m 7,25.5 c 0,0 -.5,-0.06314 -0.5,0.5 0,2.00166 7,3.49812 7,5 v 5 c 0,0 -0.06384,0.5 0.5,0.5 1.49816,0 3.75376,-3 5,-3 1.24624,0 3.49757,3 5,3 0.56307,0 0.5,-0.49989 0.5,-0.49989 V 31 c 0,-1.50416 7,-3 7,-5 0,-0.55649 -0.5,-0.5 -0.5,-0.5 z"/>
		</g>
		
		<g inkscape:label="face">
			<g inkscape:label="white-fur" fill="white">
				<path d="M 7.96417,20.93022 H 25.6325 L 27.3084,19.03616 30.72699,19.59606 29.07397,22.01915 V 23.65312 L 24.29095,26.4146 18.04577,27.61052 12.94293,26.2794 8.5354,23.29741 Z"/>
				<path d="M 7.28148,8.44867 5.65959,10.6197 5.5,13.5 h 1 v 3 L 9.20729,16.28571 7.64125,12.32213 Z"/>
				<path d="m 29,16.50035 3.5,1 0,-4 H 33.5 L 33.2598,10.27875 31.51724,8.08148 31.40478,12.0399 29,16.50035"/>
			</g>
			<g inkscape:label="pink-fur" fill="#FF80B2">
				<path d="M 16,8.5 13.13134,6.29973 7.5,5.5 7.64971,11.63185 8.78063,15.59845 10.5,17.10035 10.93957,12.69823 12.47735,9.74132 Z"/>
				<path d="M 23.5,8.5 26.48242,6.44274 31.5,5.5 31.40478,12.0399 29,16.5 27.9967,12.81444 26.15521,9.56175 23.5,8.5"/>
				<path d="M 10,21 17.01204,21 c 3.25456,-0 3.36264,1.23349 6.17077,1.23349 1.2408,0 2.53363,-1.26721 2.53363,-1.26721 L 27.21882,18.02775 26.79587,17.94929 24.02143,16.42166 20.28212,16.20608 19.32344,14.14324 17.69042,15.4348 13.5,15.5 11.5,17 10.8736,19.32177 7.5,19.5 Z"/>
			</g>
			<g inkscape:label="ear-tips" fill="#FF0062" opacity='.625'>
				<path d="M 27.22485,6.25121 L 31.5,5.5 L 31.51723,9.45014 C 29.06577,9.45014 27.22484,8.38942 27.22484,6.25085 Z"/>
				<path d="M 11.95353,6.2793 7.67838,5.52844 7.66115,9.47858 c 2.45146,0 4.29239,-1.06072 4.29239,-3.19929 Z"/>
			</g>
			<path inkscape:label="nose-shadow" stroke="#A8004B" stroke-linecap="round" d="M 13.5,19.5 H 10"/>
			<g inkscape:label="eyes" stroke="black" stroke-linecap="round">
				<path d="M 15.5,17.5 V 19.5"/>
				<path d="M 21.5,18.5 V 20.5"/>
			</g>
			<path inkscape:label="blush" stroke="#FF0050" stroke-width="0.8" stroke-linecap="round" d="M 21.5,22.5 22.5,21.5 23.5,22.5 24.5,21.5"/>
			<g inkscape:label="mouth">
				<path fill="#030101" stroke="black" d="m 15,26.95035 c 2.20895,0 4.5,-1.45065 4.5,-2.95 v -1.5 h -4.5 c -2.49969,0 -3.4952,1 -6,1"/>
				<path inkscape:label="tongue" fill="#FF999C" d="M 19,23 C 19,23.52198 19.22484,24.951 18.88085,25.37086 17.15361,27.4791 14.04699,26.61405 14.04699,26.61405 14.04699,24.73433 15.54477,23.00034 16,23 Z"/>
			</g>
			<g stroke="black">
				<path d="m 15,26.95035 c 2.20895,0 4.5,-1.45065 4.5,-2.95 v -1.5 h -4.5 c -2.49969,0 -3.4952,1 -6,1"/>
				<path inkscape:label="nose" d="M 10,20.5 H 8"/>
				<path inkscape:label="outline" d="m 11.5,17 c 0,0 -0.00236,2.5 -1.5,2.5 H 7.5 c 0,1.52612 -0.0875,2.54093 1.3287,3.95713 1.21987,1.21988 5.21519,4.04287 9.6713,4.04287 4.45612,0 11,-3.24773 11,-5 l -3.5,0 c 0,0 4.5,-0.0054 4.5,-3.00111 l -2.5,0.00221 C 26.61395,19.50268 25.33632,20.63739 25.33632,20.63739"/>
			</g>
		</g>
		
		<g inkscape:label="hair">
			<path inkscape:label="fill" fill="#FFCDCD" d="M 10.975,16.5 12.73195,16.27397 13.5,15.5 17.69042,15.4348 19.32344,14.14325 20.28212,16.20609 24.5,16.5 25.14016,17.26877 26.5,17.5 27.4239,18.42425 28.5,17.02024 27.9967,12.81444 26.15521,9.56175 22.71357,8.16631 22.5,5.5 19.48958,7.28985 17.5,6.5 17.27832,8.24295 15.26184,8.41869 12.47735,9.74132 10.93957,12.69823 Z"/>
			<g inkscape:label="shine" stroke="#E8E8E8">
				<path d="m 20,11.5 c 2.00207,0 2.5,-0.50461 2.5,-1.5"/>
				<path d="m 19,11.5 c -2.00207,0 -2.5,-0.50461 -2.5,-1.5"/>
			</g>
			<g inkscape:label="inner-strokes" stroke="#452333">
				<path d="M 7.5,7.5 C 7.5,11.09495 7.37718,13.99299 9.65828,16.81027"/>
				<path d="M 16,8.5 C 11.18308,8.5 10.5,13.21104 10.5,17.1"/>
				<path d="M 31.5,7 C 31.5,12.11931 31.74862,13.53368 29,16.5"/>
				<path d="M 23.5,8.5 C 26.50679,8.5 28.44696,12.40128 28.50073,17.02024"/>
			</g>
			<path inkscape:label="inner-top-strokes" stroke="#654343" d="M 16,8.5 C 18,8.5 19.5,9.5 19.5,9.5 S 21,8.5 23.5,8.5"/>
			<g inkscape:label="ear-tiny" stroke="#5F0829">
				<path d="M 31.50347,9.44894 C 31.52905,8.61557 31.482,7.65586 31.50223,6.3676"/>
				<path d="m 7.50484,9.48375 C 7.47925,8.65038 7.52631,7.69067 7.50608,6.40242"/>
			</g>
			
			<g inkscape:label="outline" stroke="black">
				<path d="M 25.33632,20.63739 L 29,16.5 C 29,16.5 29.28685,17.5 32.5,17.5 L 32.5,13.5 C 33.04456,13.49828 33.5,13.5 33.5,13.5 V 11.5 C 33.5,9.55987 31.5,8.93036 31.5,7.5 V 5.5 C 31.5,5.5 26.23518,5.47042 23.5,8.5 23.5,8.5 22.5,8.49634 22.5,8 L 22.5,5.5 C 20.99617,5.5 19.5,7.5 19.5,7.5  S 18.49664,6.5 17.5,6.5 V 8 C 17.5,8.50444 16,8.5 16,8.5  14.53247,5.47755 7.5,5.5 7.5,5.5 V 7.5 C 7.5,8.99314 5.5,9.65864 5.5,11.5 V 13.5 H 6.5 V 16.5 H 9 C 10,16.5 9.50424,17.5 10.5,17.5 H 11.5"/>
				<path d="m 14.5,11.50035 c 0,0 -1,-0.00941 -1,1.5 v 2.5 h 3.5 c 1.14327,0 2.49815,-1.08432 2.49952,-2.5 l 0.00048,-0.71849 v 1.71849 c 0,0.99275 0.50213,2.49999 2,2.5 l 3,0.00002 V 14.00035 c 0,-1.50752 -1,-1.49998 -1,-1.49998"/>
				<path d="m 24.5,16.5 c 0,0 -0.08793,1 2,1 V 14.5"/>
				<path d="m 10.975,16.5 c 0,0 2.525,0.23769 2.525,-1"/>
			</g>
		</g>
	</symbol>
</svg>
